<svg id="Layer_1" data-name="Layer 1" xmlns="http://www.w3.org/2000/svg" viewBox="0 0 512 512"><title>update-refresh-arrow11-flat</title><path d="M55,9.14H457a55,55,0,0,1,55,55V447.88a55,55,0,0,1-55,55H55a55,55,0,0,1-55-55V64.12A55,55,0,0,1,55,9.14Z" transform="translate(512) rotate(90)" fill="#e6d6a6"/><rect x="20.23" y="11.1" width="471.53" height="489.81" rx="43.89" ry="43.89" fill="#008982"/><path d="M361.05,150.95c-26.2-28.22-63.78-45.09-105.11-45.09-82.54,0-150.08,67.53-150.08,150.08s67.53,150.2,150.08,150.2c69.46,0,127.65-48.84,144.52-112.62H361.05c-15,43.16-56.27,75-105.11,75-61.83,0-112.5-50.67-112.5-112.62s50.67-112.5,112.5-112.5c32,0,58.2,13.09,78.91,33.71l-60.12,60.12H406.14V105.86Zm0,0" fill="#eedaa6"/></svg>